<?xml version="1.0" encoding="iso-8859-1"?>
<!-- Generator: Adobe Illustrator 21.0.0, SVG Export Plug-In . SVG Version: 6.00 Build 0)  -->
<svg version="1.1" id="Capa_1" xmlns="http://www.w3.org/2000/svg" xmlns:xlink="http://www.w3.org/1999/xlink" x="0px" y="0px"
	 viewBox="0 0 480 480" style="enable-background:new 0 0 480 480;" xml:space="preserve">
<g>
	<g>
		<path d="M272,384c-17.673,0-32-14.327-32-32v-39.096c10.413-17.524,15.938-37.519,16-57.904v-71c0-66.168-57.424-120-128-120
			S0,117.832,0,184v71c0.62,44.056,25.503,84.173,64.696,104.304l7.528-14.12C38.255,327.825,16.633,293.142,16,255v-71
			c0-57.344,50.24-104,112-104s112,46.656,112,104v71c-0.633,38.142-22.255,72.825-56.224,90.184L145.504,365.6
			c-10.956,5.761-24.045,5.761-35,0l-7.536,14.12c15.672,8.235,34.392,8.235,50.064,0L160,376v40c0,4.109,3.112,7.549,7.2,7.96
			l58.4,5.84c8.187,0.8,14.422,7.694,14.4,15.92V480h16v-34.28c0.049-16.453-12.425-30.243-28.8-31.84L176,408.8v-41.336
			l15.304-8.16c12.188-6.48,23.233-14.911,32.696-24.96V352c0.026,26.499,21.501,47.974,48,48h40v-16H272z"/>
	</g>
</g>
<g>
	<g>
		<path d="M80,361.144V408.8l-51.2,5.12c-16.36,1.595-28.828,15.363-28.8,31.8V480h16v-34.28c-0.023-8.226,6.213-15.12,14.4-15.92
			l58.4-5.8c4.103-0.412,7.221-3.876,7.2-8v-54.856H80z"/>
	</g>
</g>
<g>
	<g>
		<path d="M217.648,185.504l-23.128-4.856l13.4-19.44c2.193-3.178,1.802-7.47-0.928-10.2l-22-22
			c-2.729-2.726-7.015-3.116-10.192-0.928l-19.44,13.4l-4.864-23.128c-0.78-3.703-4.047-6.354-7.832-6.352h-29.328
			c-3.784-0.002-7.052,2.649-7.832,6.352l-4.864,23.128l-19.44-13.4c-3.177-2.188-7.463-1.798-10.192,0.928l-22,22
			c-2.73,2.73-3.121,7.022-0.928,10.2l13.4,19.44l-23.128,4.856c-3.703,0.78-6.354,4.048-6.352,7.832v29.328
			c-0.002,3.784,2.649,7.052,6.352,7.832l23.128,4.856l-13.4,19.44c-2.193,3.178-1.802,7.47,0.928,10.2l22,22
			c2.729,2.726,7.015,3.116,10.192,0.928l19.44-13.4l4.864,23.128c0.78,3.703,4.047,6.354,7.832,6.352h29.328
			c3.784,0.002,7.052-2.649,7.832-6.352l4.864-23.128l19.44,13.4c3.177,2.188,7.463,1.798,10.192-0.928l22-22
			c2.73-2.73,3.121-7.022,0.928-10.2l-13.4-19.44l23.128-4.856c3.703-0.78,6.354-4.047,6.352-7.832v-29.328
			C224.002,189.552,221.351,186.284,217.648,185.504z M208,216.176l-17.752,3.728c-8.286,1.757-13.579,9.897-11.822,18.183
			c0.419,1.979,1.226,3.855,2.374,5.521l10.168,14.792L178.4,270.968L163.608,260.8c-6.968-4.807-16.514-3.055-21.321,3.913
			c-1.155,1.674-1.965,3.561-2.383,5.551L136.168,288h-16.336l-3.736-17.752c-1.749-8.283-9.882-13.579-18.164-11.83
			c-1.986,0.419-3.869,1.229-5.54,2.382L77.6,270.968L65.032,258.4L75.2,243.616c4.805-6.98,3.041-16.534-3.939-21.339
			c-1.667-1.148-3.545-1.954-5.525-2.373L48,216.176v-16.352l17.752-3.728c8.286-1.757,13.579-9.897,11.822-18.183
			c-0.419-1.979-1.226-3.855-2.374-5.521L65.032,157.6L77.6,145.032L92.392,155.2c6.968,4.807,16.514,3.055,21.321-3.913
			c1.155-1.674,1.965-3.561,2.383-5.551L119.832,128h16.336l3.736,17.752c1.749,8.283,9.882,13.579,18.164,11.83
			c1.986-0.419,3.869-1.229,5.54-2.382l14.792-10.168l12.568,12.568L180.8,172.384c-4.805,6.98-3.041,16.534,3.939,21.339
			c1.667,1.148,3.545,1.954,5.525,2.373L208,199.824V216.176z"/>
	</g>
</g>
<g>
	<g>
		<path d="M128,168c-22.091,0-40,17.909-40,40c0.026,22.08,17.92,39.974,40,40c22.091,0,40-17.909,40-40S150.091,168,128,168z
			 M128,232c-13.255,0-24-10.745-24-24s10.745-24,24-24s24,10.745,24,24S141.255,232,128,232z"/>
	</g>
</g>
<g>
	<g>
		<path d="M447.77,39.589c-13.355,0.192-24.026,11.174-23.834,24.529c0.105,7.338,3.537,14.231,9.329,18.738L415.72,136
			c-5.732,0.078-11.243,2.223-15.52,6.04L367.6,124c2.423-12.816-6.002-25.169-18.818-27.592C347.206,96.11,345.604,95.973,344,96
			c-13.255,0-24,10.745-24,24c0.013,5.169,1.716,10.192,4.848,14.304l-23,34.496c-1.908-0.511-3.873-0.78-5.848-0.8
			c-13.255,0-24,10.745-24,24s10.745,24,24,24s24-10.745,24-24c-0.014-5.171-1.717-10.197-4.848-14.312l23-34.488
			c1.908,0.511,3.873,0.78,5.848,0.8c5.832-0.023,11.453-2.184,15.8-6.072l32.6,18.112c-2.299,13.054,6.421,25.5,19.475,27.798
			s25.5-6.42,27.798-19.474c1.54-8.743-1.873-17.622-8.873-23.084l17.664-53.328c13.355-0.192,24.026-11.174,23.834-24.529
			C472.107,50.068,461.125,39.397,447.77,39.589z M296,200c-4.418,0-8-3.582-8-8s3.582-8,8-8s8,3.582,8,8S300.418,200,296,200z
			 M344,128c-4.418,0-8-3.582-8-8s3.582-8,8-8s8,3.582,8,8S348.418,128,344,128z M416,168c-4.418,0-8-3.582-8-8s3.582-8,8-8
			s8,3.582,8,8S420.418,168,416,168z M448,72c-4.418,0-8-3.582-8-8s3.582-8,8-8s8,3.582,8,8S452.418,72,448,72z"/>
	</g>
</g>
<g>
	<g>
		<polygon points="456,168 456,344 440,344 440,296 424,296 424,344 408,344 408,288 392,288 392,344 376,344 376,264 360,264 
			360,344 344,344 344,216 328,216 328,344 312,344 312,312 296,312 296,344 280,344 280,360 472,360 472,352 472,344 472,168 		"/>
	</g>
</g>
<g>
	<g>
		<path d="M272,0c-26.499,0.026-47.974,21.501-48,48v40h16V48c0-17.673,14.327-32,32-32h40V0H272z"/>
	</g>
</g>
<g>
	<g>
		<rect x="328" y="384" width="16" height="16"/>
	</g>
</g>
<g>
	<g>
		<rect x="360" y="384" width="120" height="16"/>
	</g>
</g>
<g>
	<g>
		<rect x="336" y="0" width="144" height="16"/>
	</g>
</g>
<g>
</g>
<g>
</g>
<g>
</g>
<g>
</g>
<g>
</g>
<g>
</g>
<g>
</g>
<g>
</g>
<g>
</g>
<g>
</g>
<g>
</g>
<g>
</g>
<g>
</g>
<g>
</g>
<g>
</g>
</svg>
